HIERARCHY
ROOT Hips
{
	OFFSET 0.00000 0.00000 0.00000
	CHANNELS 6 Xposition Yposition Zposition Zrotation Yrotation Xrotation 
	JOINT LHipJoint
	{
		OFFSET 0 0 0
		CHANNELS 3 Zrotation Yrotation Xrotation
		JOINT LeftUpLeg
		{
			OFFSET 1.81638 -1.86202 0.89635
			CHANNELS 3 Zrotation Yrotation Xrotation
			JOINT LeftLeg
			{
				OFFSET 2.63464 -7.23861 0.00000
				CHANNELS 3 Zrotation Yrotation Xrotation
				JOINT LeftFoot
				{
					OFFSET 2.45871 -6.75336 0.00000
					CHANNELS 3 Zrotation Yrotation Xrotation
					JOINT LeftToeBase
					{
						OFFSET 0.34235 -0.94059 2.20020
						CHANNELS 3 Zrotation Yrotation Xrotation
						End Site
						{
							OFFSET 0.00000 -0.00000 1.18611
						}
					}
				}
			}
		}
	}
	JOINT RHipJoint
	{
		OFFSET 0 0 0
		CHANNELS 3 Zrotation Yrotation Xrotation
		JOINT RightUpLeg
		{
			OFFSET -1.84405 -1.86203 0.89635
			CHANNELS 3 Zrotation Yrotation Xrotation
			JOINT RightLeg
			{
				OFFSET -2.71067 -7.44751 0.00000
				CHANNELS 3 Zrotation Yrotation Xrotation
				JOINT RightFoot
				{
					OFFSET -2.47159 -6.79060 0.00000
					CHANNELS 3 Zrotation Yrotation Xrotation
					JOINT RightToeBase
					{
						OFFSET -0.26223 -0.72048 2.36007
						CHANNELS 3 Zrotation Yrotation Xrotation
						End Site
						{
							OFFSET -0.00000 -0.00000 1.23343
						}
					}
				}
			}
		}
	}
	JOINT LowerBack
	{
		OFFSET 0 0 0
		CHANNELS 3 Zrotation Yrotation Xrotation
		JOINT Spine
		{
			OFFSET 0.02089 1.99248 -0.22512
			CHANNELS 3 Zrotation Yrotation Xrotation
			JOINT Spine1
			{
				OFFSET 0.01476 2.01356 -0.03079
				CHANNELS 3 Zrotation Yrotation Xrotation
				JOINT Neck
				{
					OFFSET 0 0 0
					CHANNELS 3 Zrotation Yrotation Xrotation
					JOINT Neck1
					{
						OFFSET 0.04846 1.65098 0.06663
						CHANNELS 3 Zrotation Yrotation Xrotation
						JOINT Head
						{
							OFFSET -0.06061 1.60634 -0.07565
							CHANNELS 3 Zrotation Yrotation Xrotation
							End Site
							{
								OFFSET -0.02954 1.73562 -0.03642
							}
						}
					}
				}
				JOINT LeftShoulder
				{
					OFFSET 0 0 0
					CHANNELS 3 Zrotation Yrotation Xrotation
					JOINT LeftArm
					{
						OFFSET 3.45234 1.47051 -0.06993
						CHANNELS 3 Zrotation Yrotation Xrotation
						JOINT LeftForeArm
						{
							OFFSET 5.49313 -0.00000 0.00000
							CHANNELS 3 Zrotation Yrotation Xrotation
							JOINT LeftHand
							{
								OFFSET 3.29037 -0.00000 0.00000
								CHANNELS 3 Zrotation Yrotation Xrotation
								JOINT LeftFingerBase
								{
									OFFSET 0 0 0
									CHANNELS 3 Zrotation Yrotation Xrotation
									JOINT LeftHandIndex1
									{
										OFFSET 0.72966 -0.00000 0.00000
										CHANNELS 3 Zrotation Yrotation Xrotation
										End Site
										{
											OFFSET 0.58827 -0.00000 0.00000
										}
									}
								}
								JOINT LThumb
								{
									OFFSET 0 0 0
									CHANNELS 3 Zrotation Yrotation Xrotation
									End Site
									{
										OFFSET 0.59725 -0.00000 0.59725
									}
								}
							}
						}
					}
				}
				JOINT RightShoulder
				{
					OFFSET 0 0 0
					CHANNELS 3 Zrotation Yrotation Xrotation
					JOINT RightArm
					{
						OFFSET -3.41935 1.44327 0.20453
						CHANNELS 3 Zrotation Yrotation Xrotation
						JOINT RightForeArm
						{
							OFFSET -5.23684 -0.00000 0.00000
							CHANNELS 3 Zrotation Yrotation Xrotation
							JOINT RightHand
							{
								OFFSET -3.38251 -0.00000 0.00000
								CHANNELS 3 Zrotation Yrotation Xrotation
								JOINT RightFingerBase
								{
									OFFSET 0 0 0
									CHANNELS 3 Zrotation Yrotation Xrotation
									JOINT RightHandIndex1
									{
										OFFSET -0.69145 -0.00000 0.00000
										CHANNELS 3 Zrotation Yrotation Xrotation
										End Site
										{
											OFFSET -0.55747 -0.00000 0.00000
										}
									}
								}
								JOINT RThumb
								{
									OFFSET 0 0 0
									CHANNELS 3 Zrotation Yrotation Xrotation
									End Site
									{
										OFFSET -0.56598 -0.00000 0.56598
									}
								}
							}
						}
					}
				}
			}
		}
	}
}
MOTION
Frames: 5
Frame Time: .0083333
10.2620 9.8404 -0.8643 -306.3810 94.5533 -255.3100 0.0000 0.0000 0.0000 0.2928 8.1055 -38.9919 26.9276 18.8082 110.6497 1.8304 -15.6219 35.1644 0.7619 5.5745 15.5546 0.0000 0.0000 0.0000 16.5368 15.3363 -45.1225 -28.3714 -18.2292 115.1934 -3.1015 6.8555 36.1669 -0.2473 -3.2001 8.8364 2.5116 -0.0285 40.0686 2.5212 2.0184 3.5875 0.4687 0.9586 -15.6424 0.5814 -1.1000 -3.6667 -6.1288 -1.9168 -24.2471 -2.0672 -0.0249 -6.8487 0.0000 0.0000 0.0000 -50.4374 -60.4684 33.9252 18.9108 -29.3077 -4.9871 -0.0000 -0.0000 18.8217 61.6593 -13.6431 -23.6208 -7.1250 0.0000 -0.0000 21.4253 4.3941 -21.2994 0.0000 0.0000 0.0000 41.3564 46.9706 39.1079 -36.5293 45.8738 -15.9013 0.0000 0.0000 27.8279 -61.4453 -3.2051 5.8661 7.1250 -0.0000 -0.0000 -28.4243 -35.2030 -7.6441
10.3298 9.8458 -0.8502 -306.5200 94.5309 -255.2200 0.0000 0.0000 0.0000 0.6392 8.3790 -40.0909 27.2372 18.6948 111.6128 1.8870 -15.9677 35.7631 0.7697 5.6020 15.6338 0.0000 0.0000 0.0000 16.6246 15.4845 -44.8902 -28.2673 -18.2753 114.8610 -3.2532 6.5777 36.8093 -0.2549 -3.2482 8.9706 2.3920 0.1109 39.8261 2.4491 2.1089 3.5471 0.4118 0.9996 -15.6056 0.7431 -1.1225 -3.6160 -6.2034 -1.9589 -24.2124 -2.1167 -0.0549 -6.8486 0.0000 0.0000 0.0000 -51.1007 -60.4207 34.6015 18.9422 -29.3467 -5.0025 -0.0000 -0.0000 18.9559 61.9051 -14.0988 -24.5277 -7.1250 0.0000 -0.0000 21.4204 3.4737 -21.6846 0.0000 0.0000 0.0000 40.6937 47.5701 37.1793 -36.3684 45.7649 -15.7859 0.0000 0.0000 27.0231 -61.1334 -3.5080 6.3335 7.1250 -0.0000 -0.0000 -28.3560 -35.7222 -7.2123
10.3963 9.8506 -0.8358 -306.0930 94.4752 -254.5760 0.0000 0.0000 0.0000 0.9399 8.6505 -41.1825 27.5362 18.5799 112.5485 1.9303 -16.3753 36.3377 0.7686 5.5980 15.6225 0.0000 0.0000 0.0000 16.6693 15.6422 -44.6698 -28.1803 -18.3134 114.5838 -3.3646 6.3174 37.2481 -0.2669 -3.3237 9.1813 2.2066 0.2797 39.5910 2.3712 2.2076 3.5054 0.3799 1.0476 -15.5747 0.8950 -1.1423 -3.5549 -6.2645 -1.9952 -24.1854 -2.1605 -0.0819 -6.8527 0.0000 -0.0000 0.0000 -51.7696 -60.3621 35.2746 18.9677 -29.3785 -5.0150 -0.0000 -0.0000 19.1029 62.1583 -14.5572 -25.4488 -7.1250 0.0000 -0.0000 21.4190 2.5422 -22.0718 0.0000 -0.0000 0.0000 40.0109 48.2376 35.2640 -36.1044 45.5848 -15.5970 0.0000 0.0000 26.1930 -60.7701 -3.8329 6.8124 7.1250 -0.0000 -0.0000 -28.2536 -36.2662 -6.7540
10.4617 9.8549 -0.8212 -305.1630 94.3886 -253.4430 0.0000 0.0000 0.0000 1.1956 8.9076 -42.2652 27.8234 18.4643 113.4526 1.9718 -16.8019 36.9155 0.7653 5.5865 15.5892 0.0000 0.0000 0.0000 16.6746 15.8076 -44.4582 -28.1101 -18.3437 114.3606 -3.4431 6.0697 37.5255 -0.2830 -3.4211 9.4535 1.9696 0.4718 39.3648 2.2843 2.3131 3.4637 0.3625 1.1010 -15.5480 1.0407 -1.1630 -3.4845 -6.3132 -2.0308 -24.1656 -2.1992 -0.1087 -6.8606 0.0000 0.0000 0.0000 -52.4517 -60.2956 35.9482 18.9915 -29.4082 -5.0267 -0.0000 -0.0000 19.2636 62.4139 -15.0173 -26.3781 -7.1250 0.0000 -0.0000 21.4189 1.6043 -22.4559 0.0000 0.0000 0.0000 39.3178 48.9630 33.3514 -35.7426 45.3352 -15.3391 0.0000 0.0000 25.3802 -60.3648 -4.1718 7.2871 7.1250 -0.0000 -0.0000 -28.1179 -36.8189 -6.2842
10.5262 9.8589 -0.8067 -303.8240 94.2835 -251.9290 0.0000 0.0000 0.0000 1.4202 9.1449 -43.3178 28.0983 18.3488 114.3231 2.0131 -17.2340 37.4940 0.7593 5.5651 15.5277 0.0000 0.0000 0.0000 16.6589 15.9647 -44.2323 -28.0536 -18.3679 114.1812 -3.4980 5.8547 37.7003 -0.2997 -3.5197 9.7293 1.7052 0.6789 39.1685 2.1882 2.4266 3.4240 0.3459 1.1593 -15.5303 1.1813 -1.1884 -3.3970 -6.3506 -2.0714 -24.1636 -2.2334 -0.1375 -6.8775 -0.0000 -0.0000 0.0000 -53.1519 -60.2276 36.6315 19.0157 -29.4381 -5.0385 -0.0000 -0.0000 19.4315 62.6639 -15.4677 -27.2898 -7.1250 0.0000 -0.0000 21.4190 0.6854 -22.8255 -0.0000 -0.0000 0.0000 38.6148 49.7306 31.4307 -35.2847 45.0143 -15.0144 0.0000 0.0000 24.6379 -59.9296 -4.4993 7.7160 7.1250 -0.0000 -0.0000 -27.9427 -37.3364 -5.8373
